<?xml version="1.0" encoding="utf-8"?>
<!-- Generator: Adobe Illustrator 28.2.0, SVG Export Plug-In . SVG Version: 6.00 Build 0)  -->
<svg version="1.1" id="Layer_1" xmlns="http://www.w3.org/2000/svg" xmlns:xlink="http://www.w3.org/1999/xlink" x="0px" y="0px"
	 viewBox="0 0 274 456.2" style="enable-background:new 0 0 274 456.2;" xml:space="preserve">
<style type="text/css">
	.st0{fill:#483EFF;}
	.st1{fill:#FFFFFF;filter:url(#Adobe_OpacityMaskFilter);}
	.st2{mask:url(#a_00000029760767987813265220000005433210937847940764_);}
	.st3{fill-rule:evenodd;clip-rule:evenodd;fill:#6259FF;}
	.st4{fill-rule:evenodd;clip-rule:evenodd;fill:#F9818E;}
	.st5{fill:none;stroke:#FFFFFF;stroke-width:5;stroke-linecap:round;stroke-linejoin:bevel;}
	.st6{fill:#FFAF7E;}
</style>
<path class="st0" d="M10-100.9h254c5.5,0,10,4.5,10,10v548c0,5.5-4.5,10-10,10H10c-5.5,0-10-4.5-10-10v-548
	C0-96.4,4.5-100.9,10-100.9z"/>
<defs>
	<filter id="Adobe_OpacityMaskFilter" filterUnits="userSpaceOnUse" x="-66.7" y="242.9" width="367" height="302.8">
		<feColorMatrix  type="matrix" values="1 0 0 0 0  0 1 0 0 0  0 0 1 0 0  0 0 0 1 0"/>
	</filter>
</defs>
<mask maskUnits="userSpaceOnUse" x="-66.7" y="242.9" width="367" height="302.8" id="a_00000029760767987813265220000005433210937847940764_">
	<path class="st1" d="M10-100.9h254c5.5,0,10,4.5,10,10v548c0,5.5-4.5,10-10,10H10c-5.5,0-10-4.5-10-10v-548
		C0-96.4,4.5-100.9,10-100.9z"/>
</mask>
<g class="st2">
	<path class="st3" d="M-34.7,442.2C3.2,531.6,168.8,584.1,212,511.6c43.2-72.5-66.1-85.7-104.7-160.6
		C68.6,276.1,38.6,229.4-17.3,246.4C-73.1,263.5-72.6,352.7-34.7,442.2L-34.7,442.2z"/>
	<path class="st4" d="M233.1,500.2c60.7-28.3,92.8-143.5,41.9-171.5c-51-28-57.4,47.6-108.1,76c-50.7,28.4-82.1,50.2-69,88.2
		C111,531,172.4,528.5,233.1,500.2z"/>
	<path class="st5" d="M165.3,368.2l10.6-10.8 M209.5,373.7L197,363.2 M187.6,388.1l-6.9,14.8"/>
	<path class="st6" d="M0.3,446c37,0,67-30,67-67s-30-67-67-67s-67,30-67,67S-36.7,446,0.3,446z"/>
</g>
</svg>
